<svg xmlns="http://www.w3.org/2000/svg" viewBox="0 0 24 24"><path d="M12 5.5A3.5 3.5 0 0 1 15.5 9a3.5 3.5 0 0 1-3.5 3.5A3.5 3.5 0 0 1 8.5 9 3.5 3.5 0 0 1 12 5.5M5 8c.6 0 1 .2 1.5.4-.1 1.4.3 2.9 1.2 4A3 3 0 0 1 5 14a3 3 0 0 1-3-3 3 3 0 0 1 3-3m14 0a3 3 0 0 1 3 3 3 3 0 0 1-3 3 3 3 0 0 1-2.7-1.6 5.5 5.5 0 0 0 1.2-4A3 3 0 0 1 19 8M5.5 18.3c0-2.1 3-3.8 6.5-3.8 3.6 0 6.5 1.7 6.5 3.8V20h-13v-1.8M0 20v-1.5c0-1.4 1.9-2.6 4.5-2.9a4 4 0 0 0-1 2.7V20H0m24 0h-3.5v-1.8c0-1-.4-2-1-2.6 2.6.3 4.5 1.5 4.5 2.9V20Z"/></svg>