<svg xmlns="http://www.w3.org/2000/svg" height="100" width="200"><g style="fill:#fff;stroke:#fff"><path style="fill:#fff;stroke:#fff" d="M21.13 126.5 5.91 152.37v9.27h19.8l13.83-35.14Zm44.71 0-10.47 35.14h45.14V126.5ZM40.86 92.98l-4.34 7.38v7.66H46.8l5.92-15.04Zm34.97 0-4.48 15.04h29.16V92.98ZM54.08 70.53l-2.21 3.76v3.8h6.7l2.98-7.56zm28.45 0-2.26 7.56h20.24v-7.56zM63.6 54.36l-1.94 3.29v1.79h4.24l2-5.08zm23.75 0-1.52 5.08h14.68v-5.08zM70.6 42.43l-.72 1.2v1.93h1.5l1.23-3.13zm20.27 0-.94 3.13h10.57v-3.13z" transform="matrix(.43272 0 0 .43272 56.03 16.37)"/></g><path style="fill:#fff;stroke:#fff;stroke-width:.432725px;stroke-linecap:butt;stroke-linejoin:miter;stroke-opacity:1" d="m92.1 32.07 1.83.05-20 64.29-3.9-.02.06-6.1zM105.3 32.3l-1.82.04 19.99 64.29 3.9-.02-.05-6.1z"/><path style="fill:#fff;stroke:#fff;stroke-width:.432725" d="m132.15 71.1 6.59 11.2v4.01h-8.57l-5.98-15.2zm-19.35 0 4.53 15.21H97.8v-15.2zM123.61 56.6l1.88 3.2v3.31h-4.45l-2.56-6.5zm-15.13 0 1.94 6.51H97.8v-6.5zM117.9 46.89l.95 1.62v1.65h-2.9l-1.3-3.27zm-12.32 0 .98 3.27H97.8v-3.27zM113.77 39.89l.84 1.42v.78h-1.84l-.86-2.2zm-10.27 0 .65 2.2H97.8v-2.2zM110.74 34.73l.31.52v.83h-.64l-.54-1.35zm-8.77 0 .4 1.35H97.8v-1.35z"/><text xml:space="preserve" style="font-size:32.0087px;line-height:1.25;font-family:'AR BERKLEY';-inkscape-font-specification:'AR BERKLEY';stroke-width:.800219;font-weight:400;font-style:normal;font-stretch:normal;font-variant:normal" x="1.42" y="29.17"/><g aria-label="Project Trains" style="font-style:normal;font-variant:normal;font-weight:500;font-stretch:normal;font-size:30.8327px;line-height:1.25;font-family:Raleway;-inkscape-font-specification:'Raleway Medium';stroke-width:.77082;fill:#fff;stroke:#fff"><path d="M4.4 29.8V7.93h9.13q1.45 0 2.65.61 1.23.59 2.1 1.6.89 1 1.38 2.26.5 1.23.5 2.53 0 1.35-.47 2.62-.46 1.26-1.32 2.25-.84.98-2.04 1.57-1.17.59-2.62.59H7.17v7.86zm2.77-10.32h6.39q.86 0 1.54-.34.7-.37 1.2-.99.5-.64.77-1.48.28-.83.28-1.75 0-.96-.34-1.8-.3-.83-.86-1.44-.53-.62-1.27-.96-.7-.34-1.5-.34h-6.2ZM31.69 16.09q-2.04.06-3.61 1.05-1.54.98-2.19 2.74v9.93h-2.71V13.7h2.53v3.73q.83-1.66 2.18-2.68 1.36-1.05 2.9-1.17h.53q.21 0 .37.03zM41.03 30.12q-1.82 0-3.33-.68-1.48-.68-2.56-1.82-1.05-1.14-1.63-2.65-.59-1.51-.59-3.18 0-1.7.59-3.2.61-1.52 1.66-2.66 1.08-1.14 2.56-1.82 1.51-.67 3.3-.67 1.79 0 3.3.67 1.5.68 2.56 1.82 1.08 1.14 1.66 2.65.62 1.52.62 3.21 0 1.67-.59 3.18-.58 1.5-1.66 2.65-1.08 1.14-2.6 1.82-1.47.68-3.3.68zm-5.33-8.3q0 1.27.4 2.35.43 1.07 1.14 1.88.74.8 1.7 1.26.98.46 2.09.46 1.1 0 2.06-.46 1-.46 1.73-1.26.74-.84 1.14-1.92.43-1.1.43-2.37 0-1.23-.43-2.31-.4-1.11-1.14-1.91-.74-.84-1.73-1.3-.95-.46-2.06-.46t-2.1.5q-.95.45-1.7 1.29-.7.8-1.13 1.9-.4 1.09-.4 2.35zM50.4 35.54q-1.08 0-2-.3-.96-.31-1.7-1l1.27-1.81q.43.4 1.01.55.56.16 1.11.16.5 0 .96-.22.46-.18.83-.52.37-.34.59-.83.21-.5.21-1.05v-16.8h2.72v16.61q0 1.14-.43 2.1-.4.95-1.11 1.63-.68.71-1.58 1.08-.9.4-1.88.4zm2.28-24.85V7.3h2.72v3.4ZM66.9 30.12q-1.82 0-3.33-.65-1.51-.68-2.6-1.82-1.07-1.14-1.69-2.65-.58-1.54-.58-3.24 0-1.7.58-3.2.62-1.52 1.7-2.66 1.1-1.14 2.62-1.79 1.5-.67 3.33-.67 1.82 0 3.3.67 1.5.68 2.56 1.82 1.05 1.11 1.6 2.62.59 1.48.59 3.09 0 .34-.03.61 0 .28-.04.44H61.56q.1 1.2.56 2.18.46 1 1.2 1.7.74.71 1.67 1.11.95.4 2 .4.74 0 1.45-.18.7-.22 1.33-.56.61-.34 1.07-.83.5-.5.74-1.11l2.35.65q-.4.89-1.11 1.63-.68.74-1.6 1.3-.9.52-2.01.83-1.11.3-2.31.3zm5.52-9.44q-.1-1.14-.59-2.1-.46-.98-1.2-1.66-.71-.68-1.67-1.05-.95-.4-2.03-.4-1.08 0-2.04.4-.95.37-1.7 1.08-.7.68-1.16 1.63-.44.96-.53 2.1zM76.92 21.73q0-1.7.58-3.2.59-1.52 1.67-2.63 1.08-1.14 2.56-1.79 1.5-.67 3.36-.67 2.4 0 4.13 1.07 1.76 1.05 2.65 2.84l-2.65.83q-.62-1.14-1.73-1.75-1.1-.65-2.46-.65-1.11 0-2.1.46-.99.43-1.7 1.23-.7.8-1.14 1.89-.4 1.07-.4 2.37 0 1.26.43 2.37.44 1.11 1.15 1.95.74.8 1.7 1.26.98.46 2.09.46.7 0 1.39-.18.7-.22 1.26-.56.59-.34 1.02-.77.43-.46.61-.98l2.66.8q-.37.9-1.05 1.63-.65.74-1.54 1.27-.9.52-2 .83-1.09.3-2.29.3-1.82 0-3.33-.67-1.51-.68-2.59-1.82-1.08-1.14-1.7-2.65-.58-1.54-.58-3.24zM103.4 29q-.24.13-.64.31-.4.16-.93.34-.5.16-1.1.25-.6.12-1.24.12-1.48 0-2.56-.8-1.08-.83-1.08-2.56V15.84h-2.19v-2.13h2.19V8.35h2.71v5.36h3.61v2.13h-3.6v10q.05.88.58 1.29.52.4 1.23.4.8 0 1.45-.25.68-.28.93-.43zM129.03 10.38h-7.56v19.43h-2.77V10.38h-7.56V7.92h17.89zM137.75 16.09q-2.03.06-3.6 1.05-1.55.98-2.2 2.74v9.93h-2.7V13.7h2.52v3.73q.83-1.66 2.19-2.68 1.36-1.05 2.9-1.17h.52q.22 0 .37.03zM144.57 30.12q-1.15 0-2.13-.37-.99-.4-1.73-1.08-.7-.68-1.14-1.58-.4-.92-.4-2 0-1.1.5-2 .49-.93 1.38-1.58.93-.64 2.16-1.01 1.26-.37 2.74-.37 1.17 0 2.38.21 1.2.22 2.12.59v-1.3q0-1.97-1.1-3.08-1.12-1.14-3.15-1.14-2.44 0-5.12 1.88l-.9-1.76q3.12-2.1 6.27-2.1 3.17 0 4.93 1.7 1.79 1.7 1.79 4.78v6.57q0 .95.86.98v2.35l-.7.09q-.29.03-.6.03-.8 0-1.29-.46-.46-.5-.55-1.17l-.07-1.14q-1.08 1.45-2.74 2.22-1.63.74-3.51.74zm.7-2.04q1.45 0 2.69-.52 1.26-.56 1.9-1.45.6-.59.6-1.2v-2.38q-1.98-.77-4.1-.77-2.04 0-3.34.86-1.26.87-1.26 2.25 0 .68.25 1.27.27.58.74 1.02.49.43 1.14.67.64.25 1.38.25zM157.51 29.8V13.72h2.72v16.1zm0-19.1V7.3h2.72v3.4ZM178.57 29.8h-2.71v-9q0-2.59-.8-3.76-.77-1.17-2.38-1.17-.83 0-1.66.34-.83.3-1.57.86-.74.56-1.3 1.33-.55.77-.83 1.7v9.7h-2.71V13.72h2.46v3.46q.96-1.7 2.75-2.72 1.82-1.01 3.94-1.01 1.4 0 2.32.52.92.5 1.48 1.42.55.9.77 2.13.24 1.23.24 2.68zM188.44 30.12q-1.94 0-3.82-.59-1.88-.62-3.24-1.76l1.17-1.82q1.42 1.08 2.84 1.64 1.42.52 2.99.52 1.76 0 2.77-.68 1.05-.7 1.05-1.97 0-.59-.28-.99-.27-.43-.83-.74-.55-.3-1.42-.55-.86-.25-2-.53-1.45-.37-2.5-.7-1.05-.34-1.73-.8-.67-.47-.98-1.12-.31-.64-.31-1.6 0-1.2.46-2.13.5-.95 1.33-1.57.83-.65 1.94-.96 1.14-.33 2.44-.33 1.82 0 3.39.58 1.57.59 2.65 1.54l-1.23 1.64q-1.02-.9-2.29-1.33-1.26-.46-2.59-.46-1.48 0-2.52.65-1.02.61-1.02 2 0 .56.18.93.22.37.68.64.46.28 1.17.5.74.21 1.76.46 1.6.37 2.78.77 1.2.37 1.97.9.8.52 1.17 1.23.4.7.4 1.72 0 2.25-1.72 3.58-1.73 1.33-4.66 1.33z" style="stroke-width:.77082;fill:#fff;stroke:#fff"/></g></svg>