<svg xmlns="http://www.w3.org/2000/svg" viewBox="0 0 200 100"><path d="m65.2 71.1-6.6 11.2v4h8.6l6-15.2Zm19.3 0L80 86.3h19.5V71.1ZM73.7 56.6l-1.9 3.2v3.3h4.5l2.5-6.5Zm15.1 0L87 63.1h12.6v-6.5Zm-9.4-9.7-1 1.6v1.7h3l1.3-3.3zm12.3 0-1 3.3h8.8v-3.3zm-8.1-7-.9 1.4v.8h1.8l1-2.2zm10.2 0-.6 2.2h6.3v-2.2zm-7.2-5.2-.3.5v.9h.6l.5-1.4zm8.8 0-.5 1.4h4.6v-1.4z" fill="#fff" stroke="#fff" stroke-width=".43272"/><path d="m92.1 32 1.8.1-20 64.3H70v-6.1zm13.2.3h-1.8l20 64.3h3.9v-6zM132.2 71.1l6.5 11.2v4h-8.5l-6-15.2zm-19.4 0 4.5 15.2H97.8V71.1zm10.8-14.5 1.9 3.2v3.3H121l-2.5-6.5zm-15.1 0 2 6.5H97.7v-6.5zm9.4-9.7 1 1.6v1.7h-3l-1.3-3.3zm-12.3 0 1 3.3h-8.8v-3.3zm8.2-7 .8 1.4v.8h-1.8l-.9-2.2zm-10.3 0 .7 2.2h-6.4v-2.2zm7.2-5.2.3.5v.9h-.6l-.5-1.4zm-8.7 0 .4 1.4h-4.6v-1.4z" fill="#fff" stroke="#fff" stroke-width=".4"/><path d="M4.4 29.8V7.9h9.1q1.5 0 2.7.6 1.2.6 2 1.6 1 1 1.5 2.3.5 1.2.5 2.5 0 1.4-.5 2.6-.5 1.3-1.3 2.3-.9 1-2 1.6-1.2.6-2.7.6H7.2v7.8zm2.8-10.3h6.4q.8 0 1.5-.4.7-.3 1.2-1 .5-.6.8-1.4l.2-1.8q0-1-.3-1.8t-.9-1.4q-.5-.6-1.2-1-.7-.3-1.5-.3H7.2ZM31.7 16q-2 0-3.6 1T25.9 20v10h-2.7V13.6h2.5v3.7q.8-1.6 2.2-2.6 1.4-1.1 2.9-1.2h.9zM41 30q-1.8 0-3.3-.7-1.5-.6-2.6-1.8-1-1.1-1.6-2.6-.6-1.5-.6-3.2 0-1.7.6-3.2.6-1.5 1.7-2.7 1-1.1 2.5-1.8t3.3-.7q1.8 0 3.3.7 1.5.7 2.6 1.8 1 1.2 1.6 2.7.7 1.5.7 3.2 0 1.7-.6 3.2-.6 1.5-1.7 2.6-1 1.2-2.6 1.8-1.5.7-3.3.7zm-5.3-8.3q0 1.3.4 2.4.4 1 1.1 1.9.8.7 1.7 1.2 1 .5 2.1.5t2-.5q1-.4 1.8-1.2.8-.9 1.2-2 .4-1 .4-2.3 0-1.3-.4-2.3-.4-1.2-1.2-2-.7-.8-1.7-1.3-1-.4-2-.4t-2.2.5q-1 .4-1.7 1.3-.7.8-1.1 1.9-.4 1-.4 2.3zm14.7 13.7q-1 0-2-.3t-1.7-1l1.3-1.8q.4.4 1 .6l1 .1q.6 0 1-.2l.9-.5.6-.8.2-1V13.6h2.7v16.6q0 1.2-.4 2.1-.4 1-1.1 1.7-.7.7-1.6 1-1 .4-1.9.4zm2.3-24.8V7.3h2.7v3.4ZM66.9 30q-1.8 0-3.3-.6-1.5-.7-2.6-1.8-1.1-1.2-1.7-2.7-.6-1.5-.6-3.2 0-1.7.6-3.2.6-1.6 1.7-2.7 1-1.1 2.6-1.8 1.5-.7 3.3-.7 1.9 0 3.3.7 1.5.7 2.6 1.8 1 1.1 1.6 2.7.6 1.4.6 3v1.1H61.5q0 1.2.5 2.2.5 1 1.2 1.7.8.7 1.7 1 1 .5 2 .5l1.4-.2 1.4-.6q.6-.3 1-.8.5-.5.8-1.1l2.3.7-1 1.6-1.7 1.3q-.9.5-2 .8-1.1.3-2.3.3zm5.5-9.4q0-1.2-.6-2.1-.4-1-1.2-1.7-.7-.7-1.6-1-1-.4-2-.4-1.2 0-2.1.4-1 .3-1.7 1T62 18.6q-.4 1-.5 2zm4.5 1q0-1.7.6-3.2.6-1.5 1.7-2.6 1-1.1 2.5-1.8t3.4-.7q2.4 0 4.1 1.1 1.8 1 2.7 2.9l-2.7.8q-.6-1.2-1.7-1.8-1.1-.6-2.5-.6-1 0-2 .4-1 .5-1.8 1.3-.7.8-1.1 1.9-.4 1-.4 2.3 0 1.3.4 2.4.5 1.1 1.2 2 .7.7 1.7 1.2t2 .5q.8 0 1.5-.2t1.2-.6l1-.7q.5-.5.6-1l2.7.8q-.4.9-1 1.6-.7.8-1.6 1.3-.9.5-2 .8-1 .3-2.3.3-1.8 0-3.3-.7-1.5-.6-2.6-1.8-1-1.1-1.7-2.6-.6-1.6-.6-3.3zm26.5 7.3-.6.3-1 .3-1 .3-1.3.1q-1.5 0-2.6-.8-1-.8-1-2.5V15.8h-2.2v-2h2.2V8.2h2.7v5.4h3.6v2.1h-3.6v10q0 1 .6 1.3.5.4 1.2.4.8 0 1.4-.2l1-.5zM129 10.4h-7.5v19.4h-2.8V10.4h-7.6V7.9h18zm8.8 5.7q-2 0-3.7 1-1.5 1-2.1 2.8v10h-2.7V13.6h2.5v3.7q.8-1.6 2.2-2.6 1.3-1.1 2.9-1.2h.9zm6.8 14q-1.2 0-2.2-.4-1-.3-1.7-1t-1.1-1.6q-.4-1-.4-2 0-1.1.5-2 .5-1 1.4-1.6.9-.6 2.1-1 1.3-.4 2.8-.4l2.3.2 2.2.6v-1.3q0-2-1.1-3-1.2-1.2-3.2-1.2-2.4 0-5.1 1.9l-1-1.8q3.2-2 6.4-2 3.1 0 4.9 1.6 1.8 1.7 1.8 4.8v6.6q0 1 .8 1v2.3l-.7.1h-.6q-.8 0-1.3-.4-.4-.5-.5-1.2v-1.1q-1.2 1.4-2.8 2.2-1.6.7-3.5.7zm.7-2q1.4 0 2.7-.5 1.2-.6 1.9-1.5.6-.6.6-1.2v-2.4q-2-.7-4.1-.7-2 0-3.4.8-1.2.9-1.2 2.3 0 .7.2 1.2l.7 1q.5.5 1.2.7.6.3 1.4.3zm12.2 1.7v-16h2.7v16zm0-19.1V7.3h2.7v3.4Zm21 19.1H176v-9q0-2.6-.8-3.8-.8-1.1-2.4-1.1-.9 0-1.7.3-.8.3-1.6.9-.7.5-1.3 1.3-.5.8-.8 1.7v9.7h-2.7v-16h2.5v3.4q1-1.7 2.7-2.7 1.8-1 4-1 1.4 0 2.3.5.9.5 1.5 1.4.5.9.7 2.1.3 1.2.3 2.7zm10 .3q-2 0-3.9-.6t-3.2-1.7l1.1-1.9q1.5 1.1 2.9 1.7 1.4.5 3 .5 1.7 0 2.7-.7 1.1-.7 1.1-2 0-.5-.3-1-.2-.4-.8-.7l-1.4-.5-2-.5-2.5-.7-1.8-.8q-.6-.5-1-1.2-.2-.6-.2-1.6 0-1.2.4-2.1.5-1 1.3-1.6.9-.6 2-1 1.1-.3 2.4-.3 1.8 0 3.4.6 1.6.6 2.7 1.6l-1.3 1.6q-1-.9-2.3-1.3-1.2-.5-2.5-.5-1.5 0-2.6.7-1 .6-1 2 0 .5.2.9t.7.6q.4.3 1.1.5l1.8.5 2.8.8q1.2.3 2 .9.8.5 1.1 1.2.4.7.4 1.7 0 2.3-1.7 3.6-1.7 1.3-4.7 1.3z" aria-label="Project Trains" style="line-height:1.25;-inkscape-font-specification:'Raleway Medium'" font-weight="500" font-size="30.8" font-family="Raleway" stroke-width=".8" fill="#fff" stroke="#fff"/></svg>