<svg viewBox="0 0 4.861 5.821" xmlns:xlink="http://www.w3.org/1999/xlink" xmlns="http://www.w3.org/2000/svg"><defs><linearGradient id="c"><stop offset="0" stop-color="#155490"/><stop offset="1" stop-color="#0d61a9"/></linearGradient><linearGradient id="b"><stop offset="0" stop-color="#057fdc"/><stop offset="1" stop-color="#29a3f3"/></linearGradient><linearGradient id="a"><stop offset="0" stop-color="#c7c7c7"/><stop offset="1" stop-color="#b3b3b3"/></linearGradient><linearGradient xlink:href="#a" id="e" x1="149.279" y1="187.798" x2="148.971" y2="178.139" gradientUnits="userSpaceOnUse" gradientTransform="translate(-.726 -1.437)"/><linearGradient xlink:href="#a" id="d" gradientUnits="userSpaceOnUse" x1="149.279" y1="187.798" x2="148.971" y2="178.139" gradientTransform="translate(-221.03 -1.437)"/><linearGradient xlink:href="#b" id="f" x1="111.182" y1="165.785" x2="111.182" y2="112.294" gradientUnits="userSpaceOnUse" gradientTransform="matrix(-1 0 0 1 220.566 -1.36)"/><linearGradient xlink:href="#c" id="g" x1="87.71" y1="131.41" x2="108.65" y2="131.41" gradientUnits="userSpaceOnUse" gradientTransform="translate(-228.23 -33.492)"/><linearGradient xlink:href="#c" id="h" gradientUnits="userSpaceOnUse" gradientTransform="translate(-228.23 -253.796)" x1="87.71" y1="131.41" x2="108.65" y2="131.41"/></defs><g transform="translate(-6.942 -9.208) scale(.08509)" stroke-width="11.752"><rect width="5.93" height="23.528" x="-74.755" y="163.094" ry="0" transform="matrix(-1 0 .32291 .94643 0 0)" fill="url(#d)"/><rect width="5.93" height="23.528" x="145.549" y="163.094" ry="0" transform="skewX(-18.839) scale(1 .94643)" fill="url(#e)"/><path d="M110.152 108.224c3.947 0 28.564-.614 28.564 11.004v38.026a9.781 9.781 0 0 1-9.802 9.802H91.39a9.781 9.781 0 0 1-9.803-9.803v-38.025c0-11.756 24.617-11.004 28.564-11.004z" fill="url(#f)"/><rect width="20.939" height="20.813" x="-140.519" y="87.511" ry="3.721" transform="rotate(-90)" fill="url(#g)"/><circle cx="94.145" cy="156.509" r="4.739" fill="#fff"/><circle cx="-126.159" cy="156.509" r="4.739" transform="scale(-1 1)" fill="#fff"/><rect width="20.939" height="20.813" x="-140.519" y="-132.793" ry="3.721" transform="matrix(0 -1 -1 0 0 0)" fill="url(#h)"/></g></svg>